<svg width="184" height="33" viewBox="0 0 184 33" fill="none" xmlns="http://www.w3.org/2000/svg">
<path fill-rule="evenodd" clip-rule="evenodd" d="M53.2465 4.86906V0.47113H49.3955V4.91207C48.1675 5.13341 47.032 5.56094 45.9891 6.19468C44.3941 7.16087 43.1365 8.54882 42.2164 10.3585C41.2962 12.1605 40.8361 14.3191 40.8361 16.8343C40.8361 19.3418 41.2962 21.5004 42.2164 23.3101C43.1365 25.1198 44.3941 26.5116 45.9891 27.4855C47.032 28.1142 48.1675 28.5384 49.3955 28.758V32.2727H53.2465V28.8006C54.5679 28.5961 55.7835 28.1577 56.8933 27.4855C58.496 26.5116 59.7574 25.1237 60.6776 23.3216C61.5977 21.5119 62.0578 19.3495 62.0578 16.8343C62.0578 14.3191 61.5977 12.1605 60.6776 10.3585C59.7574 8.54882 58.496 7.16087 56.8933 6.19468C55.7835 5.51706 54.5679 5.07519 53.2465 4.86906ZM49.3955 8.27173C48.8383 8.44146 48.3125 8.68463 47.818 9.00125C46.7521 9.67605 45.9086 10.6729 45.2875 11.9918C44.674 13.3031 44.3673 14.9173 44.3673 16.8343C44.3673 18.7514 44.674 20.3694 45.2875 21.6883C45.9086 22.9996 46.7521 23.9964 47.818 24.6789C48.3125 24.992 48.8383 25.2324 49.3955 25.4002V8.27173ZM53.2465 25.4714V8.1997C53.8968 8.36952 54.5066 8.6367 55.0759 9.00125C56.1495 9.67605 56.993 10.6729 57.6064 11.9918C58.2276 13.3031 58.5381 14.9173 58.5381 16.8343C58.5381 18.7514 58.2276 20.3694 57.6064 21.6883C56.993 22.9996 56.1495 23.9964 55.0759 24.6789C54.5066 25.0393 53.8968 25.3035 53.2465 25.4714ZM177.926 10.9451V28.6127H182.826V10.9451H177.926ZM178.513 7.94303C179.034 8.42613 179.659 8.66768 180.388 8.66768C181.116 8.66768 181.737 8.42613 182.251 7.94303C182.773 7.45227 183.033 6.86565 183.033 6.18318C183.033 5.50838 182.773 4.92943 182.251 4.44633C181.737 3.95556 181.116 3.71018 180.388 3.71018C179.659 3.71018 179.034 3.95556 178.513 4.44633C177.999 4.92943 177.742 5.50838 177.742 6.18318C177.742 6.86565 177.999 7.45227 178.513 7.94303ZM0 28.6127V5.05595H8.39669C10.2294 5.05595 11.7477 5.38952 12.9516 6.05665C14.1555 6.72379 15.0565 7.6363 15.6546 8.7942C16.2528 9.94443 16.5518 11.2404 16.5518 12.682C16.5518 14.1313 16.2489 15.4349 15.6431 16.5928C15.045 17.743 14.1402 18.6555 12.9286 19.3303C11.7247 19.9975 10.2102 20.331 8.38518 20.331H3.55421V28.6127H0ZM8.06312 17.3174H3.55421V8.10406H8.01711C9.19801 8.10406 10.1489 8.2996 10.8697 8.69068C11.5982 9.08176 12.1311 9.62237 12.4685 10.3125C12.8059 11.0026 12.9746 11.7925 12.9746 12.682C12.9746 13.5715 12.8059 14.3652 12.4685 15.063C12.1311 15.7608 11.602 16.3129 10.8812 16.7193C10.1604 17.118 9.22102 17.3174 8.06312 17.3174ZM20.7185 28.6127V5.05595H29.1152C30.9403 5.05595 32.4547 5.37035 33.6586 5.99914C34.8702 6.62793 35.7751 7.49828 36.3732 8.61017C36.9713 9.71439 37.2704 10.9911 37.2704 12.4404C37.2704 13.8821 36.9675 15.1511 36.3617 16.2477C35.7636 17.3366 34.8587 18.1839 33.6471 18.7897C33.4265 18.9007 33.1954 19.0016 32.954 19.0922L38.1675 28.6127H34.1187L29.3327 19.6968C29.2569 19.6979 29.1806 19.6984 29.1037 19.6984H24.2727V28.6127H20.7185ZM28.7817 16.6388H24.2727V8.10406H28.7356C29.9089 8.10406 30.8559 8.28043 31.5767 8.63317C32.3052 8.97824 32.8381 9.47667 33.1755 10.1285C33.5206 10.7803 33.6931 11.5509 33.6931 12.4404C33.6931 13.3223 33.5244 14.0776 33.187 14.7064C32.8496 15.3352 32.3167 15.8144 31.5882 16.1442C30.8674 16.4739 29.9319 16.6388 28.7817 16.6388ZM66.4891 5.05595H70.8025L78.302 23.3676H78.578L86.0775 5.05595H90.3909V28.6127H87.0092V11.5663H86.7907L83.317 20.0722L79.8433 28.5782H77.0367L70.0893 11.5548H69.8708V28.6127H66.4891V5.05595ZM95.5583 5.05595V28.6127H99.1125V20.331H103.943C105.769 20.331 107.283 19.9975 108.487 19.3303C109.698 18.6555 110.603 17.743 111.201 16.5928C111.807 15.4349 112.11 14.1313 112.11 12.682C112.11 11.2404 111.811 9.94443 111.213 8.7942C110.615 7.6363 109.714 6.72379 108.51 6.05665C107.306 5.38952 105.788 5.05595 103.955 5.05595H95.5583ZM99.1125 17.3174H103.621C104.779 17.3174 105.719 17.118 106.439 16.7193C107.16 16.3129 107.689 15.7608 108.027 15.063C108.364 14.3652 108.533 13.5715 108.533 12.682C108.533 11.7925 108.364 11.0026 108.027 10.3125C107.689 9.62237 107.156 9.08176 106.428 8.69068C105.707 8.2996 104.756 8.10406 103.575 8.10406H99.1125V17.3174ZM115.115 8.11557V5.05595H133.346V8.11557H125.996V28.6127H122.454V8.11557H115.115ZM136.834 5.05595V28.6127H141.815V20.9751H146.002C147.811 20.9751 149.353 20.6416 150.626 19.9744C151.906 19.3073 152.884 18.3756 153.559 17.1794C154.234 15.9831 154.571 14.6029 154.571 13.0386C154.571 11.4742 154.237 10.094 153.57 8.89772C152.911 7.69382 151.952 6.75446 150.695 6.07966C149.437 5.39719 147.915 5.05595 146.128 5.05595H136.834ZM141.815 16.9838H145.197C146.155 16.9838 146.945 16.819 147.566 16.4892C148.195 16.1518 148.663 15.6879 148.969 15.0975C149.284 14.4993 149.441 13.813 149.441 13.0386C149.441 12.2564 149.284 11.5739 148.969 10.9911C148.663 10.4007 148.195 9.94443 147.566 9.62237C146.937 9.29264 146.14 9.12777 145.174 9.12777H141.815V16.9838ZM162.614 18.3986V28.6127H157.714V5.05595H162.476V14.0623H162.683C163.082 13.0194 163.726 12.2027 164.615 11.6123C165.505 11.0141 166.621 10.7151 167.962 10.7151C169.189 10.7151 170.259 10.9835 171.172 11.5203C172.092 12.0494 172.805 12.8123 173.311 13.8092C173.825 14.7984 174.078 15.9831 174.07 17.3634V28.6127H169.17V18.2376C169.178 17.1487 168.902 16.3014 168.342 15.6956C167.79 15.0898 167.015 14.7869 166.019 14.7869C165.351 14.7869 164.761 14.9288 164.247 15.2125C163.741 15.4962 163.342 15.9103 163.051 16.4547C162.767 16.9915 162.622 17.6395 162.614 18.3986Z" fill="#F6CD76"/>
</svg>
