<svg width="212" height="26" viewBox="0 0 212 26" fill="none" xmlns="http://www.w3.org/2000/svg">
<path d="M206.978 7.36167V24.7351H211.796V7.36167H206.978Z" fill="#F6CD76"/>
<path d="M207.555 4.40955C208.068 4.8846 208.682 5.12213 209.399 5.12213C210.115 5.12213 210.726 4.8846 211.231 4.40955C211.744 3.92695 212 3.3501 212 2.67899C212 2.01542 211.744 1.44611 211.231 0.971056C210.726 0.48846 210.115 0.247162 209.399 0.247162C208.682 0.247162 208.068 0.48846 207.555 0.971056C207.05 1.44611 206.797 2.01542 206.797 2.67899C206.797 3.3501 207.05 3.92695 207.555 4.40955Z" fill="#F6CD76"/>
<path fill-rule="evenodd" clip-rule="evenodd" d="M90.4623 19.6C91.42 17.828 91.8988 15.6789 91.8988 13.1528C91.8988 10.6267 91.42 8.47768 90.4623 6.70565C89.5122 4.93362 88.2152 3.58386 86.5714 2.65637C84.9351 1.72134 83.0952 1.25383 81.0517 1.25383C78.9932 1.25383 77.1457 1.72134 75.5094 2.65637C73.8731 3.58386 72.5799 4.93362 71.6298 6.70565C70.6797 8.47768 70.2046 10.6267 70.2046 13.1528C70.2046 15.6714 70.6797 17.8166 71.6298 19.5887C72.5799 21.3607 73.8731 22.7142 75.5094 23.6493C77.1457 24.5843 78.9932 25.0518 81.0517 25.0518C83.0952 25.0518 84.9351 24.5881 86.5714 23.6606C88.2152 22.7255 89.5122 21.372 90.4623 19.6ZM86.1981 9.01305C86.6883 10.1366 86.9334 11.5165 86.9334 13.1528C86.9334 14.7891 86.6883 16.169 86.1981 17.2926C85.7156 18.4161 85.0331 19.2682 84.1509 19.8488C83.2686 20.4294 82.2356 20.7198 81.0517 20.7198C79.8679 20.7198 78.8348 20.4294 77.9526 19.8488C77.0703 19.2682 76.3841 18.4161 75.894 17.2926C75.4114 16.169 75.1701 14.7891 75.1701 13.1528C75.1701 11.5165 75.4114 10.1366 75.894 9.01305C76.3841 7.88951 77.0703 7.03743 77.9526 6.45681C78.8348 5.87619 79.8679 5.58587 81.0517 5.58587C82.2356 5.58587 83.2686 5.87619 84.1509 6.45681C85.0331 7.03743 85.7156 7.88951 86.1981 9.01305Z" fill="#F6CD76"/>
<path fill-rule="evenodd" clip-rule="evenodd" d="M29.087 24.7351V1.57053H38.2261C39.983 1.57053 41.4798 1.90608 42.7165 2.57719C43.9532 3.24076 44.8957 4.16448 45.5442 5.34835C46.2002 6.52467 46.5283 7.88197 46.5283 9.42024C46.5283 10.9585 46.1965 12.3158 45.5329 13.4921C44.8693 14.6685 43.9079 15.5846 42.6486 16.2407C41.3969 16.8967 39.8813 17.2247 38.1017 17.2247H33.9845V24.7351H29.087ZM37.3099 13.2999H33.9845V5.57456H37.2873C38.2374 5.57456 39.0216 5.73668 39.64 6.06093C40.2583 6.37763 40.7183 6.82629 41.0199 7.40692C41.329 7.98 41.4836 8.65111 41.4836 9.42024C41.4836 10.1818 41.329 10.8567 41.0199 11.4449C40.7183 12.0255 40.2583 12.4817 39.64 12.8135C39.0292 13.1377 38.2525 13.2999 37.3099 13.2999Z" fill="#F6CD76"/>
<path fill-rule="evenodd" clip-rule="evenodd" d="M49.7094 24.7351V1.57053H58.8486C60.598 1.57053 62.091 1.88346 63.3277 2.50933C64.5718 3.12765 65.5182 4.00613 66.1667 5.14475C66.8227 6.27583 67.1507 7.60674 67.1507 9.13747C67.1507 10.6757 66.8189 11.9991 66.1554 13.1076C65.4918 14.2085 64.5304 15.053 63.2711 15.6412C63.2021 15.6736 63.1322 15.7052 63.0616 15.7358L67.9764 24.7351H62.5698L58.1821 16.5234H54.607V24.7351H49.7094ZM57.9324 12.5873H54.607V5.57456H57.9098C58.8523 5.57456 59.6328 5.71406 60.2511 5.99306C60.877 6.26452 61.3407 6.66417 61.6423 7.19201C61.9515 7.71985 62.1061 8.36834 62.1061 9.13747C62.1061 9.89907 61.9515 10.5362 61.6423 11.049C61.3407 11.5618 60.8807 11.9463 60.2624 12.2027C59.6441 12.4591 58.8674 12.5873 57.9324 12.5873Z" fill="#F6CD76"/>
<path d="M95.5268 1.57053H101.567L107.946 17.1342H108.218L114.597 1.57053H120.637V24.7351H115.886V9.65777H115.694L109.699 24.622H106.464L100.47 9.60122H100.277V24.7351H95.5268V1.57053Z" fill="#F6CD76"/>
<path fill-rule="evenodd" clip-rule="evenodd" d="M133.811 1.57053H124.672V24.7351H129.57V17.2247H133.687C135.466 17.2247 136.982 16.8967 138.234 16.2407C139.493 15.5846 140.454 14.6685 141.118 13.4921C141.781 12.3158 142.113 10.9585 142.113 9.42024C142.113 7.88197 141.785 6.52467 141.129 5.34835C140.481 4.16448 139.538 3.24076 138.301 2.57719C137.065 1.90608 135.568 1.57053 133.811 1.57053ZM129.57 13.2999H132.895C133.837 13.2999 134.614 13.1377 135.225 12.8135C135.843 12.4817 136.303 12.0255 136.605 11.4449C136.914 10.8567 137.069 10.1818 137.069 9.42024C137.069 8.65111 136.914 7.98 136.605 7.40692C136.303 6.82629 135.843 6.37763 135.225 6.06093C134.607 5.73668 133.822 5.57456 132.872 5.57456H129.57V13.2999Z" fill="#F6CD76"/>
<path d="M144.412 5.60849V1.57053H163.437V5.60849H156.345V24.7351H151.504V5.60849H144.412Z" fill="#F6CD76"/>
<path fill-rule="evenodd" clip-rule="evenodd" d="M175.709 1.57053H166.57V24.7351H171.468V17.2247H175.585C177.364 17.2247 178.88 16.8967 180.132 16.2407C181.391 15.5846 182.352 14.6685 183.016 13.4921C183.68 12.3158 184.011 10.9585 184.011 9.42024C184.011 7.88197 183.683 6.52467 183.027 5.34835C182.379 4.16448 181.436 3.24076 180.2 2.57719C178.963 1.90608 177.466 1.57053 175.709 1.57053ZM171.468 13.2999H174.793C175.736 13.2999 176.512 13.1377 177.123 12.8135C177.741 12.4817 178.201 12.0255 178.503 11.4449C178.812 10.8567 178.967 10.1818 178.967 9.42024C178.967 8.65111 178.812 7.98 178.503 7.40692C178.201 6.82629 177.741 6.37763 177.123 6.06093C176.505 5.73668 175.721 5.57456 174.77 5.57456H171.468V13.2999Z" fill="#F6CD76"/>
<path d="M191.92 14.6911V24.7351H187.102V1.57053H191.785V10.4269H191.988C192.38 9.40139 193.014 8.59832 193.889 8.0177C194.763 7.42954 195.86 7.13546 197.18 7.13546C198.386 7.13546 199.438 7.39938 200.336 7.92722C201.241 8.44751 201.942 9.1978 202.44 10.1781C202.945 11.1508 203.194 12.3158 203.186 13.6731V24.7351H198.368V14.5327C198.375 13.462 198.104 12.6287 197.553 12.033C197.01 11.4373 196.249 11.1395 195.268 11.1395C194.612 11.1395 194.032 11.279 193.527 11.558C193.029 11.837 192.637 12.2442 192.35 12.7796C192.071 13.3074 191.928 13.9446 191.92 14.6911Z" fill="#F6CD76"/>
<path d="M2.697 2.88438C2.06332 2.27442 1.05514 2.29365 0.445183 2.92733C-0.164779 3.56101 -0.145549 4.56918 0.488133 5.17915L7.47129 11.9009L0.488133 18.6227C-0.145549 19.2326 -0.164779 20.2408 0.445183 20.8745C1.05514 21.5082 2.06332 21.5274 2.697 20.9174L10.8722 13.0483C11.1841 12.7481 11.3603 12.3338 11.3603 11.9009C11.3603 11.468 11.1841 11.0537 10.8722 10.7535L2.697 2.88438Z" fill="#F6CD76"/>
<path d="M6.26409 21.55C5.38454 21.55 4.67152 22.263 4.67152 23.1425C4.67152 24.0221 5.38454 24.7351 6.26409 24.7351H19.1108C19.9903 24.7351 20.7033 24.0221 20.7033 23.1425C20.7033 22.263 19.9903 21.55 19.1108 21.55H6.26409Z" fill="#F6CD76"/>
</svg>
